<svg xmlns="http://www.w3.org/2000/svg" viewBox="0 0 316.43 418.39"><defs><style>.cls-1{fill:#e98a3b;}.cls-2{fill:none;stroke:#000;stroke-miterlimit:10;}.cls-3{fill:#f0eeec;}.cls-4{fill:#fde794;}</style></defs><title>404100</title><g id="Layer_2" data-name="Layer 2"><g id="Colour"><g id="oảnge"><polyline class="cls-1" points="127.77 19.25 127.77 294.62 0 294.62"/><polyline class="cls-2" points="126.94 61.89 12.9 313.8 111.86 313.8 111.86 197.39 100.15 197.39 98.06 383.47"/></g><g id="Grey"><rect class="cls-3" x="127.77" y="19.34" width="158.88" height="275.37"/><polyline class="cls-2" points="141.93 294.7 141.93 0.5 280.49 0.5"/></g><g id="yellow"><path class="cls-4" d="M286.2,294.7a137.68,137.68,0,0,1,0-275.36"/><polyline class="cls-2" points="257.62 22.32 257.62 269.42 198.23 214.38 272.1 214.38 272.1 294.7"/></g><g id="oảnge-2" data-name="oảnge"><polyline class="cls-1" points="316.43 55.66 316.43 331.03 188.66 331.03"/><polyline class="cls-2" points="315.59 98.3 201.56 350.21 300.52 350.21 300.52 233.8 288.8 233.8 286.74 418.39"/></g></g></g></svg>