<svg xmlns="http://www.w3.org/2000/svg" viewBox="0 0 474.94 482.05"><defs><style>.cls-1{fill:#fde794;}.cls-2{fill:#d4e0e0;}.cls-3{fill:#e98a3b;}.cls-4,.cls-5,.cls-8,.cls-9{fill:none;}.cls-4{stroke:#000;}.cls-4,.cls-8,.cls-9{stroke-miterlimit:10;}.cls-4,.cls-8{stroke-width:3px;}.cls-6{fill:#ea483d;}.cls-7{fill:#fff;}.cls-8{stroke:#231f20;}.cls-9{stroke:#e98a3b;stroke-width:6px;}</style></defs><title>LOGOSVG100</title><g id="Layer_2" data-name="Layer 2"><g id="Layer_4" data-name="Layer 4"><path class="cls-1" d="M165.17,338.39c6.48,6,15.21,6,15.21-2.24v-33H144.69a5.39,5.39,0,0,0-4.91,7.59l12.58,14.36Z"/><path class="cls-2" d="M205.33,322.86h-5a6.45,6.45,0,0,1-6.45-6.45V266.8a3.09,3.09,0,0,1,1-2.29L206.66,253a3.07,3.07,0,0,1,5.12,2.29v61.11a6.45,6.45,0,0,1-6.45,6.45"/><path class="cls-3" d="M175.24,235v55.39a5.83,5.83,0,0,1-5.83,5.83H145.14a5.83,5.83,0,0,1-5.34-8.17l24.26-55.39A5.83,5.83,0,0,1,175.24,235"/><path class="cls-4" d="M227.88,345H197.57V331.37h17.7v-48.1h-6.94V306h-11V283.27h11V234.19l-29.54,47.64v17.54H167.12v10.48H143.87L168.2,334H144.25a132.16,132.16,0,0,0,35.68,25.49h47.95Z"/><polygon class="cls-4" points="129.74 299.37 167.13 299.37 167.13 216.19 129.74 299.37"/><polygon class="cls-3" points="230.26 101.11 230.26 59.83 232.39 59.83 233.33 29.69 235.47 29.69 236.87 0 237.51 0 238.8 29.69 240.93 29.69 241.87 59.83 244.01 59.83 244.61 101.11 230.26 101.11"/><polygon class="cls-5" points="230.26 101.11 230.26 59.83 232.39 59.83 233.33 29.69 235.47 29.69 236.87 0 237.51 0 238.8 29.69 240.93 29.69 241.87 59.83 244.01 59.83 244.61 101.11 230.26 101.11"/><polygon class="cls-6" points="182.84 112.02 168.72 73.22 170.73 72.49 161.3 43.84 163.31 43.12 154.47 14.74 155.08 14.52 166.44 41.98 168.44 41.24 179.63 69.25 181.64 68.52 196.32 107.11 182.84 112.02"/><polygon class="cls-3" points="182.84 112.02 168.72 73.22 170.73 72.49 161.3 43.84 163.31 43.12 154.47 14.74 155.08 14.52 166.44 41.98 168.44 41.24 179.63 69.25 181.64 68.52 196.32 107.11 182.84 112.02"/><polygon class="cls-3" points="142.01 138.48 115.48 106.86 117.11 105.48 98.45 81.79 100.09 80.42 82.08 56.77 82.58 56.36 102.64 78.27 104.28 76.9 124.37 99.39 126.01 98.02 153 129.26 142.01 138.48"/><polygon class="cls-5" points="142.01 138.48 115.48 106.86 117.11 105.48 98.45 81.79 100.09 80.42 82.08 56.77 82.58 56.36 102.64 78.27 104.28 76.9 124.37 99.39 126.01 98.02 153 129.26 142.01 138.48"/><polygon class="cls-3" points="112.7 177.31 76.94 156.67 78.01 154.82 52.38 138.94 53.44 137.09 28.43 121.03 28.76 120.47 55.11 134.2 56.18 132.35 82.75 146.61 83.82 144.76 119.87 164.89 112.7 177.31"/><polygon class="cls-5" points="112.7 177.31 76.94 156.67 78.01 154.82 52.38 138.94 53.44 137.09 28.43 121.03 28.76 120.47 55.11 134.2 56.18 132.35 82.75 146.61 83.82 144.76 119.87 164.89 112.7 177.31"/><polygon class="cls-3" points="98.43 223.83 57.77 216.66 58.15 214.56 28.62 208.4 28.99 206.29 0 199.76 0.11 199.12 29.57 203.01 29.94 200.91 59.79 205.22 60.16 203.12 100.92 209.7 98.43 223.83"/><polygon class="cls-5" points="98.43 223.83 57.77 216.66 58.15 214.56 28.62 208.4 28.99 206.29 0 199.76 0.11 199.12 29.57 203.01 29.94 200.91 59.79 205.22 60.16 203.12 100.92 209.7 98.43 223.83"/><polygon class="cls-3" points="100.94 272.42 60.28 279.59 59.91 277.49 30.06 281.8 29.69 279.69 0.21 283.47 0.1 282.83 29.11 276.41 28.74 274.31 58.26 268.15 57.89 266.05 98.44 258.29 100.94 272.42"/><polygon class="cls-5" points="100.94 272.42 60.28 279.59 59.91 277.49 30.06 281.8 29.69 279.69 0.21 283.47 0.1 282.83 29.11 276.41 28.74 274.31 58.26 268.15 57.89 266.05 98.44 258.29 100.94 272.42"/><polygon class="cls-6" points="119.91 317.22 84.15 337.87 83.09 336.01 56.51 350.27 55.44 348.43 29.04 362.06 28.71 361.5 53.78 345.54 52.71 343.69 78.35 327.81 77.28 325.96 112.73 304.8 119.91 317.22"/><polygon class="cls-3" points="119.91 317.22 84.15 337.87 83.09 336.01 56.51 350.27 55.44 348.43 29.04 362.06 28.71 361.5 53.78 345.54 52.71 343.69 78.35 327.81 77.28 325.96 112.73 304.8 119.91 317.22"/><polygon class="cls-6" points="153.06 352.83 126.52 384.46 124.89 383.09 104.79 405.58 103.15 404.2 83 426.05 82.5 425.63 100.6 402.06 98.97 400.69 117.62 377 115.99 375.62 142.07 343.61 153.06 352.83"/><polygon class="cls-3" points="153.06 352.83 126.52 384.46 124.89 383.09 104.79 405.58 103.15 404.2 83 426.05 82.5 425.63 100.6 402.06 98.97 400.69 117.62 377 115.99 375.62 142.07 343.61 153.06 352.83"/><polygon class="cls-6" points="196.39 374.96 182.27 413.76 180.26 413.03 169.07 441.03 167.06 440.3 155.6 467.72 154.99 467.5 163.94 439.16 161.93 438.43 171.36 409.79 169.35 409.06 182.91 370.06 196.39 374.96"/><polygon class="cls-3" points="196.39 374.96 182.27 413.76 180.26 413.03 169.07 441.03 167.06 440.3 155.6 467.72 154.99 467.5 163.94 439.16 161.93 438.43 171.36 409.79 169.35 409.06 182.91 370.06 196.39 374.96"/><polygon class="cls-6" points="244.68 380.93 244.68 422.22 242.54 422.22 241.6 452.36 239.47 452.36 238.07 482.05 237.42 482.05 236.14 452.36 234 452.36 233.06 422.22 230.93 422.22 230.33 380.93 244.68 380.93"/><polygon class="cls-3" points="244.68 380.93 244.68 422.22 242.54 422.22 241.6 452.36 239.47 452.36 238.07 482.05 237.42 482.05 236.14 452.36 234 452.36 233.06 422.22 230.93 422.22 230.33 380.93 244.68 380.93"/><polygon class="cls-6" points="292.09 370.03 306.21 408.83 304.21 409.56 313.63 438.2 311.63 438.93 320.47 467.31 319.86 467.53 308.5 440.07 306.49 440.8 295.3 412.8 293.29 413.53 278.61 374.94 292.09 370.03"/><polygon class="cls-3" points="292.09 370.03 306.21 408.83 304.21 409.56 313.63 438.2 311.63 438.93 320.47 467.31 319.86 467.53 308.5 440.07 306.49 440.8 295.3 412.8 293.29 413.53 278.61 374.94 292.09 370.03"/><polygon class="cls-3" points="332.92 343.57 359.46 375.19 357.82 376.57 376.48 400.26 374.85 401.63 392.86 425.27 392.36 425.69 372.29 403.77 370.66 405.15 350.56 382.66 348.93 384.03 321.93 352.79 332.92 343.57"/><polygon class="cls-5" points="332.92 343.57 359.46 375.19 357.82 376.57 376.48 400.26 374.85 401.63 392.86 425.27 392.36 425.69 372.29 403.77 370.66 405.15 350.56 382.66 348.93 384.03 321.93 352.79 332.92 343.57"/><polygon class="cls-6" points="362.24 304.74 397.99 325.38 396.93 327.23 422.56 343.11 421.49 344.96 446.5 361.02 446.18 361.58 419.83 347.85 418.76 349.7 392.18 335.44 391.12 337.29 355.06 317.16 362.24 304.74"/><polygon class="cls-3" points="362.24 304.74 397.99 325.38 396.93 327.23 422.56 343.11 421.49 344.96 446.5 361.02 446.18 361.58 419.83 347.85 418.76 349.7 392.18 335.44 391.12 337.29 355.06 317.16 362.24 304.74"/><polygon class="cls-6" points="376.5 258.22 417.16 265.39 416.79 267.49 446.31 273.65 445.94 275.75 474.94 282.29 474.82 282.92 445.36 279.03 444.99 281.14 415.14 276.83 414.77 278.93 374.01 272.35 376.5 258.22"/><polygon class="cls-3" points="376.5 258.22 417.16 265.39 416.79 267.49 446.31 273.65 445.94 275.75 474.94 282.29 474.82 282.92 445.36 279.03 444.99 281.14 415.14 276.83 414.77 278.93 374.01 272.35 376.5 258.22"/><polygon class="cls-6" points="374 209.63 414.66 202.46 415.03 204.56 444.88 200.25 445.25 202.36 474.73 198.58 474.84 199.22 445.83 205.64 446.2 207.74 416.68 213.9 417.05 216 376.49 223.76 374 209.63"/><polygon class="cls-3" points="374 209.63 414.66 202.46 415.03 204.56 444.88 200.25 445.25 202.36 474.73 198.58 474.84 199.22 445.83 205.64 446.2 207.74 416.68 213.9 417.05 216 376.49 223.76 374 209.63"/><polygon class="cls-3" points="355.03 164.83 390.78 144.18 391.85 146.03 418.43 131.78 419.49 133.62 445.9 119.99 446.23 120.55 421.16 136.51 422.23 138.36 396.59 154.24 397.66 156.09 362.2 177.25 355.03 164.83"/><polygon class="cls-5" points="355.03 164.83 390.78 144.18 391.85 146.03 418.43 131.78 419.49 133.62 445.9 119.99 446.23 120.55 421.16 136.51 422.23 138.36 396.59 154.24 397.66 156.09 362.2 177.25 355.03 164.83"/><polygon class="cls-6" points="321.88 129.21 348.42 97.59 350.05 98.96 370.15 76.47 371.78 77.84 391.94 56 392.43 56.42 374.33 79.98 375.97 81.36 357.31 105.05 358.95 106.42 332.87 138.44 321.88 129.21"/><polygon class="cls-3" points="321.88 129.21 348.42 97.59 350.05 98.96 370.15 76.47 371.78 77.84 391.94 56 392.43 56.42 374.33 79.98 375.97 81.36 357.31 105.05 358.95 106.42 332.87 138.44 321.88 129.21"/><polygon class="cls-6" points="278.55 107.09 292.67 68.29 294.67 69.02 305.86 41.02 307.87 41.75 319.34 14.33 319.95 14.55 311 42.89 313.01 43.62 303.58 72.26 305.59 72.99 292.03 111.99 278.55 107.09"/><polygon class="cls-3" points="278.55 107.09 292.67 68.29 294.67 69.02 305.86 41.02 307.87 41.75 319.34 14.33 319.95 14.55 311 42.89 313.01 43.62 303.58 72.26 305.59 72.99 292.03 111.99 278.55 107.09"/><path class="cls-3" d="M255.63,299.94v6.34c0,3,2.75,5.36,6.14,5.36H323.1c2.38,0,3.39-2.65,1.49-3.9L313.3,295.5a2.74,2.74,0,0,0-1.93-.93h-49.6c-3.39,0-6.14,2.4-6.14,5.37"/><path class="cls-1" d="M289.7,290.37H262.57a2.84,2.84,0,0,1-2.47-4.27l15-26,12.14-21a2.86,2.86,0,0,1,5.33,1.42v47a2.85,2.85,0,0,1-2.86,2.85"/><path class="cls-2" d="M311,239.2a6,6,0,0,1,10.37,0L332.33,258l10.92,18.83c2.31,4-.57,13.95-5.18,13.95H302.81a6.15,6.15,0,0,1-5.85-8Z"/><path class="cls-4" d="M360.57,291.24H335.74a7.89,7.89,0,0,1-6.78-4.3l-25.81-56.56-12.74,26.94,0,0,0,0-15.65,33.11,15.65-33.11-11.72-14.21-9.21,13.35a7.87,7.87,0,0,1-6.77,4.3h0a7.87,7.87,0,0,0,6.77-4.3l9.21-13.35,11.72,14.21,12.74-26.94L329,286.94a7.89,7.89,0,0,0,6.78,4.3h24.83"/><path class="cls-4" d="M346,317.44c-5.7.17-13-1.23-17.3-8.2a20.16,20.16,0,0,1-2.25-5.41c-4.1-15-20.59-13.26-20.59-13.26h0s16.49-1.71,20.59,13.26a20.16,20.16,0,0,0,2.25,5.41c4.34,7,11.6,8.37,17.3,8.2"/><path class="cls-4" d="M340.39,324.75c-5.9.62-14.71-.06-19.68-8.05a20.09,20.09,0,0,1-2.25-5.4c-4.1-15-20.59-13.26-20.59-13.26h0s16.49-1.72,20.59,13.26a20.09,20.09,0,0,0,2.25,5.4c5,8,13.78,8.67,19.68,8.05"/><path class="cls-4" d="M323.29,342a16.35,16.35,0,0,1-5.53-5.49,20.16,20.16,0,0,1-2.25-5.41c-4.11-15-20.59-13.26-20.59-13.26h0s16.48-1.71,20.59,13.26a20.16,20.16,0,0,0,2.25,5.41,16.35,16.35,0,0,0,5.53,5.49"/><path class="cls-4" d="M369.1,260.76H343.25a7.89,7.89,0,0,1-6.78-4.3l-9.21-13.35-11.74,14.24,11.74-14.24,9.21,13.35a7.89,7.89,0,0,0,6.78,4.3H369.1"/><polygon class="cls-7" points="245.2 165.45 229.66 165.45 230.26 115.16 244.6 115.16 245.2 165.45"/><polygon class="cls-8" points="245.2 165.45 229.66 165.45 230.26 115.16 244.6 115.16 245.2 165.45"/><polygon class="cls-3" points="270.27 180.09 204.59 180.09 221.17 165.45 253.69 165.45 270.27 180.09"/><polygon class="cls-4" points="270.27 180.09 204.59 180.09 221.17 165.45 253.69 165.45 270.27 180.09"/><polygon class="cls-7" points="204.59 185.67 270.27 185.67 253.69 213.19 221.17 213.19 204.59 185.67"/><polygon class="cls-4" points="204.59 185.67 270.27 185.67 253.69 213.19 221.17 213.19 204.59 185.67"/><path class="cls-7" d="M237.4,213.19h8.86s2.38,121.87,7.14,158l-16,.93Z"/><path class="cls-4" d="M237.4,213.19h8.86s2.38,121.87,7.14,158l-16,.93Z"/><path class="cls-7" d="M237.46,213.19h-8.85s-2.38,121.87-7.15,158l16,.93Z"/><path class="cls-4" d="M237.46,213.19h-8.85s-2.38,121.87-7.15,158l16,.93Z"/><circle class="cls-9" cx="237.43" cy="240.57" r="132.27"/></g></g></svg>