<svg xmlns="http://www.w3.org/2000/svg" viewBox="0 0 478.39 485.05"><defs><style>.cls-1{fill:#fccf2c;}.cls-2{fill:#23bcbc;}.cls-3{fill:#ea483d;}.cls-4,.cls-5,.cls-7{fill:none;stroke-miterlimit:10;}.cls-4{stroke:#000;}.cls-4,.cls-5{stroke-width:3px;}.cls-5{stroke:#231f20;}.cls-6{fill:#fff;}.cls-7{stroke:#ea483d;stroke-width:6px;}</style></defs><title>logo_clear100</title><g id="Layer_2" data-name="Layer 2"><g id="Layer_1-2" data-name="Layer 1"><path class="cls-1" d="M166.9,339.89c6.48,6,15.21,6,15.21-2.24v-33H146.42a5.38,5.38,0,0,0-4.91,7.59l12.58,14.36Z"/><path class="cls-2" d="M207.06,324.36h-5a6.45,6.45,0,0,1-6.45-6.45V268.3a3.09,3.09,0,0,1,1-2.29l11.73-11.5a3.07,3.07,0,0,1,5.12,2.29v61.11a6.45,6.45,0,0,1-6.45,6.45"/><path class="cls-3" d="M177,236.54v55.39a5.83,5.83,0,0,1-5.83,5.83H146.87a5.83,5.83,0,0,1-5.34-8.17l24.26-55.39A5.83,5.83,0,0,1,177,236.54"/><path class="cls-4" d="M229.61,346.51H199.29V332.87H217v-48.1h-6.93v22.74h-11V284.77h11V235.69l-29.54,47.64v17.54H168.85v10.48H145.6l24.33,24.16H146A132.36,132.36,0,0,0,181.66,361h48Z"/><polygon class="cls-4" points="131.47 300.87 168.85 300.87 168.85 217.69 131.47 300.87"/><polygon class="cls-3" points="231.99 102.61 231.99 61.33 234.12 61.33 235.06 31.19 237.2 31.19 238.6 1.5 239.24 1.5 240.53 31.19 242.66 31.19 243.6 61.33 245.74 61.33 246.34 102.61 231.99 102.61"/><polygon class="cls-5" points="231.99 102.61 231.99 61.33 234.12 61.33 235.06 31.19 237.2 31.19 238.6 1.5 239.24 1.5 240.53 31.19 242.66 31.19 243.6 61.33 245.74 61.33 246.34 102.61 231.99 102.61"/><polygon class="cls-3" points="184.57 113.52 170.45 74.72 172.46 73.99 163.03 45.34 165.04 44.62 156.2 16.24 156.81 16.02 168.17 43.48 170.17 42.74 181.36 70.75 183.37 70.02 198.05 108.61 184.57 113.52"/><polygon class="cls-5" points="184.57 113.52 170.45 74.72 172.46 73.99 163.03 45.34 165.04 44.62 156.2 16.24 156.81 16.02 168.17 43.48 170.17 42.74 181.36 70.75 183.37 70.02 198.05 108.61 184.57 113.52"/><polygon class="cls-3" points="143.74 139.98 117.2 108.36 118.84 106.98 100.18 83.29 101.82 81.92 83.81 58.27 84.31 57.86 104.37 79.77 106.01 78.4 126.1 100.89 127.74 99.52 154.73 130.76 143.74 139.98"/><polygon class="cls-5" points="143.74 139.98 117.2 108.36 118.84 106.98 100.18 83.29 101.82 81.92 83.81 58.27 84.31 57.86 104.37 79.77 106.01 78.4 126.1 100.89 127.74 99.52 154.73 130.76 143.74 139.98"/><polygon class="cls-3" points="114.43 178.81 78.67 158.17 79.74 156.32 54.1 140.44 55.17 138.59 30.16 122.53 30.49 121.97 56.84 135.7 57.91 133.85 84.48 148.11 85.55 146.26 121.6 166.39 114.43 178.81"/><polygon class="cls-5" points="114.43 178.81 78.67 158.17 79.74 156.32 54.1 140.44 55.17 138.59 30.16 122.53 30.49 121.97 56.84 135.7 57.91 133.85 84.48 148.11 85.55 146.26 121.6 166.39 114.43 178.81"/><polygon class="cls-3" points="100.16 225.33 59.5 218.16 59.87 216.06 30.35 209.9 30.72 207.79 1.73 201.26 1.84 200.62 31.3 204.51 31.67 202.41 61.52 206.72 61.89 204.62 102.65 211.2 100.16 225.33"/><polygon class="cls-5" points="100.16 225.33 59.5 218.16 59.87 216.06 30.35 209.9 30.72 207.79 1.73 201.26 1.84 200.62 31.3 204.51 31.67 202.41 61.52 206.72 61.89 204.62 102.65 211.2 100.16 225.33"/><polygon class="cls-3" points="102.67 273.92 62.01 281.09 61.64 278.99 31.79 283.3 31.42 281.19 1.94 284.97 1.83 284.33 30.84 277.91 30.47 275.81 59.99 269.65 59.62 267.55 100.17 259.79 102.67 273.92"/><polygon class="cls-5" points="102.67 273.92 62.01 281.09 61.64 278.99 31.79 283.3 31.42 281.19 1.94 284.97 1.83 284.33 30.84 277.91 30.47 275.81 59.99 269.65 59.62 267.55 100.17 259.79 102.67 273.92"/><polygon class="cls-3" points="121.64 318.72 85.88 339.37 84.81 337.51 58.24 351.77 57.17 349.93 30.76 363.56 30.44 363 55.51 347.04 54.44 345.19 80.07 329.31 79.01 327.46 114.46 306.3 121.64 318.72"/><polygon class="cls-5" points="121.64 318.72 85.88 339.37 84.81 337.51 58.24 351.77 57.17 349.93 30.76 363.56 30.44 363 55.51 347.04 54.44 345.19 80.07 329.31 79.01 327.46 114.46 306.3 121.64 318.72"/><polygon class="cls-3" points="154.79 354.33 128.25 385.96 126.61 384.59 106.52 407.08 104.88 405.7 84.73 427.55 84.23 427.13 102.33 403.56 100.7 402.19 119.35 378.5 117.72 377.12 143.8 345.11 154.79 354.33"/><polygon class="cls-5" points="154.79 354.33 128.25 385.96 126.61 384.59 106.52 407.08 104.88 405.7 84.73 427.55 84.23 427.13 102.33 403.56 100.7 402.19 119.35 378.5 117.72 377.12 143.8 345.11 154.79 354.33"/><polygon class="cls-3" points="198.12 376.46 184 415.26 181.99 414.53 170.8 442.53 168.79 441.8 157.33 469.22 156.72 469 165.66 440.66 163.66 439.93 173.09 411.29 171.08 410.56 184.64 371.56 198.12 376.46"/><polygon class="cls-5" points="198.12 376.46 184 415.26 181.99 414.53 170.8 442.53 168.79 441.8 157.33 469.22 156.72 469 165.66 440.66 163.66 439.93 173.09 411.29 171.08 410.56 184.64 371.56 198.12 376.46"/><polygon class="cls-3" points="246.41 382.43 246.41 423.72 244.27 423.72 243.33 453.86 241.2 453.86 239.8 483.55 239.15 483.55 237.87 453.86 235.73 453.86 234.79 423.72 232.66 423.72 232.06 382.43 246.41 382.43"/><polygon class="cls-5" points="246.41 382.43 246.41 423.72 244.27 423.72 243.33 453.86 241.2 453.86 239.8 483.55 239.15 483.55 237.87 453.86 235.73 453.86 234.79 423.72 232.66 423.72 232.06 382.43 246.41 382.43"/><polygon class="cls-3" points="293.82 371.53 307.94 410.33 305.94 411.06 315.36 439.7 313.36 440.43 322.2 468.81 321.59 469.03 310.23 441.57 308.22 442.3 297.03 414.3 295.02 415.03 280.34 376.44 293.82 371.53"/><polygon class="cls-5" points="293.82 371.53 307.94 410.33 305.94 411.06 315.36 439.7 313.36 440.43 322.2 468.81 321.59 469.03 310.23 441.57 308.22 442.3 297.03 414.3 295.02 415.03 280.34 376.44 293.82 371.53"/><polygon class="cls-3" points="334.65 345.07 361.19 376.69 359.55 378.07 378.21 401.76 376.57 403.13 394.58 426.77 394.09 427.19 374.02 405.27 372.39 406.65 352.29 384.16 350.66 385.53 323.66 354.29 334.65 345.07"/><polygon class="cls-5" points="334.65 345.07 361.19 376.69 359.55 378.07 378.21 401.76 376.57 403.13 394.58 426.77 394.09 427.19 374.02 405.27 372.39 406.65 352.29 384.16 350.66 385.53 323.66 354.29 334.65 345.07"/><polygon class="cls-3" points="363.96 306.24 399.72 326.88 398.65 328.73 424.29 344.61 423.22 346.46 448.23 362.52 447.91 363.08 421.56 349.35 420.49 351.2 393.91 336.94 392.85 338.79 356.79 318.66 363.96 306.24"/><polygon class="cls-5" points="363.96 306.24 399.72 326.88 398.65 328.73 424.29 344.61 423.22 346.46 448.23 362.52 447.91 363.08 421.56 349.35 420.49 351.2 393.91 336.94 392.85 338.79 356.79 318.66 363.96 306.24"/><polygon class="cls-3" points="378.23 259.72 418.89 266.89 418.52 268.99 448.04 275.15 447.67 277.25 476.66 283.79 476.55 284.42 447.09 280.53 446.72 282.64 416.87 278.33 416.5 280.43 375.74 273.85 378.23 259.72"/><polygon class="cls-5" points="378.23 259.72 418.89 266.89 418.52 268.99 448.04 275.15 447.67 277.25 476.66 283.79 476.55 284.42 447.09 280.53 446.72 282.64 416.87 278.33 416.5 280.43 375.74 273.85 378.23 259.72"/><polygon class="cls-3" points="375.73 211.13 416.39 203.96 416.76 206.06 446.61 201.75 446.98 203.86 476.45 200.08 476.57 200.72 447.56 207.14 447.93 209.24 418.4 215.4 418.77 217.5 378.22 225.26 375.73 211.13"/><polygon class="cls-5" points="375.73 211.13 416.39 203.96 416.76 206.06 446.61 201.75 446.98 203.86 476.45 200.08 476.57 200.72 447.56 207.14 447.93 209.24 418.4 215.4 418.77 217.5 378.22 225.26 375.73 211.13"/><polygon class="cls-3" points="356.76 166.33 392.51 145.68 393.58 147.53 420.15 133.28 421.22 135.12 447.63 121.49 447.95 122.05 422.89 138.01 423.95 139.86 398.32 155.74 399.39 157.59 363.93 178.75 356.76 166.33"/><polygon class="cls-5" points="356.76 166.33 392.51 145.68 393.58 147.53 420.15 133.28 421.22 135.12 447.63 121.49 447.95 122.05 422.89 138.01 423.95 139.86 398.32 155.74 399.39 157.59 363.93 178.75 356.76 166.33"/><polygon class="cls-3" points="323.61 130.71 350.14 99.09 351.78 100.46 371.88 77.97 373.51 79.34 393.67 57.5 394.16 57.92 376.06 81.48 377.7 82.86 359.04 106.55 360.68 107.92 334.6 139.94 323.61 130.71"/><polygon class="cls-5" points="323.61 130.71 350.14 99.09 351.78 100.46 371.88 77.97 373.51 79.34 393.67 57.5 394.16 57.92 376.06 81.48 377.7 82.86 359.04 106.55 360.68 107.92 334.6 139.94 323.61 130.71"/><polygon class="cls-3" points="280.27 108.59 294.39 69.79 296.4 70.52 307.59 42.52 309.6 43.25 321.07 15.83 321.68 16.05 312.73 44.39 314.74 45.12 305.31 73.76 307.31 74.49 293.76 113.49 280.27 108.59"/><polygon class="cls-5" points="280.27 108.59 294.39 69.79 296.4 70.52 307.59 42.52 309.6 43.25 321.07 15.83 321.68 16.05 312.73 44.39 314.74 45.12 305.31 73.76 307.31 74.49 293.76 113.49 280.27 108.59"/><path class="cls-3" d="M257.36,301.44v6.34c0,3,2.75,5.36,6.14,5.36h61.32c2.39,0,3.4-2.65,1.5-3.9L315,297a2.74,2.74,0,0,0-1.93-.93H263.5c-3.39,0-6.14,2.4-6.14,5.37"/><path class="cls-1" d="M291.43,291.87H264.3a2.84,2.84,0,0,1-2.47-4.27l15-26,12.14-21a2.85,2.85,0,0,1,5.32,1.42v47a2.84,2.84,0,0,1-2.85,2.85"/><path class="cls-2" d="M312.76,240.7a6,6,0,0,1,10.37,0l10.93,18.84L345,278.37c2.31,4-.57,13.95-5.18,13.95H304.54a6.15,6.15,0,0,1-5.85-8Z"/><path class="cls-4" d="M362.3,292.74H337.47a7.88,7.88,0,0,1-6.78-4.3l-25.81-56.56-12.74,26.94,0,0,0,0-15.65,33.11,15.65-33.11-11.72-14.21L271.21,258a7.87,7.87,0,0,1-6.77,4.3h0a7.87,7.87,0,0,0,6.77-4.3l9.21-13.35,11.72,14.21,12.74-26.94,25.81,56.56a7.88,7.88,0,0,0,6.78,4.3H362.3"/><path class="cls-4" d="M347.74,318.94c-5.7.17-13-1.23-17.3-8.2a20.16,20.16,0,0,1-2.25-5.41c-4.11-15-20.59-13.26-20.59-13.26h0s16.48-1.71,20.59,13.26a20.16,20.16,0,0,0,2.25,5.41c4.34,7,11.6,8.37,17.3,8.2"/><path class="cls-4" d="M342.12,326.25c-5.9.62-14.71-.06-19.68-8.05a20.09,20.09,0,0,1-2.25-5.4c-4.11-15-20.59-13.26-20.59-13.26h0s16.48-1.72,20.59,13.26a20.09,20.09,0,0,0,2.25,5.4c5,8,13.78,8.67,19.68,8.05"/><path class="cls-4" d="M325,343.47a16.41,16.41,0,0,1-5.52-5.49,20.51,20.51,0,0,1-2.26-5.41c-4.1-15-20.58-13.26-20.58-13.26h0s16.48-1.71,20.58,13.26a20.51,20.51,0,0,0,2.26,5.41,16.41,16.41,0,0,0,5.52,5.49"/><path class="cls-4" d="M370.83,262.26H345a7.89,7.89,0,0,1-6.78-4.3L329,244.61l-11.74,14.24L329,244.61,338.2,258a7.89,7.89,0,0,0,6.78,4.3h25.85"/><polygon class="cls-5" points="246.93 166.95 231.39 166.95 231.99 116.66 246.33 116.66 246.93 166.95"/><polygon class="cls-3" points="272 181.59 206.32 181.59 222.9 166.95 255.42 166.95 272 181.59"/><polygon class="cls-4" points="272 181.59 206.32 181.59 222.9 166.95 255.42 166.95 272 181.59"/><polygon class="cls-4" points="206.32 187.17 272 187.17 255.42 214.69 222.9 214.69 206.32 187.17"/><path class="cls-6" d="M239.13,214.69H248s2.38,121.87,7.14,158l-16,.93Z"/><path class="cls-4" d="M239.13,214.69H248s2.38,121.87,7.14,158l-16,.93Z"/><path class="cls-6" d="M239.19,214.69h-8.85s-2.38,121.87-7.15,158l16,.93Z"/><path class="cls-4" d="M239.19,214.69h-8.85s-2.38,121.87-7.15,158l16,.93Z"/><circle class="cls-7" cx="239.16" cy="242.07" r="132.27"/></g></g></svg>