<svg xmlns="http://www.w3.org/2000/svg" viewBox="0 0 847.43 773.11"><defs><style>.cls-1{fill:#fff;stroke:#000;stroke-miterlimit:10;stroke-width:5px;}.cls-2{font-size:21px;font-family:Avenir-Black, Avenir;font-weight:800;}.cls-3{letter-spacing:-0.02em;}</style></defs><title>map</title><g id="Map"><path id="northwest_ontario" data-name="northwest ontario" class="cls-1" d="M492.5,109.5l-198,182-29,173s3,3,10,4-3,8-3,8-11-4-12,5-3,6-3,6l5,5s8-4,8-7,1,5,6,7,4,8,4,8,3,2,12,5a9.36,9.36,0,0,0,13,0s-6,13,5,10,13-6,11-16c0,0,3-5,6,8,0,0,0,4,9,6l-8,6s2,5,13,2c0,0,6-1,9,15,0,0,2,1,2-3s9-6,9-6,3,2,2,7,7,8,7,8,4,4,0,6,2,4,3,2,4-4,4-4,1,0,3,3c0,0,1,1,5-4,0,0,8-1,12-5,0,0,3-1,6,7s20,1,20,1,5-3,6,6c0,0,1,4,5,4,0,0,2,4,6,0s4-6,8-7c0,0,8-9,4-16,0,0,13-3,15-6s4,2,3,2-3,0-3,2-1,6-3,6,0,4,0,4,0,2,3-3a79.11,79.11,0,0,0,5-10l4-4s-1-14,5-11,4,8,4,8l-9,9a47.68,47.68,0,0,0-4,8s1,3,4-1,4-2,4-2l-2-5h4s3-1,3-2,2,2,3,0,0-5,2-5,3-4,0-7-4-10,4-10c0,0,7,9,11,8s3,6,7,2a7.94,7.94,0,0,0,7,4c5,0,10-2,12,0s3,3,5,0,7,2,7,2,4,1,5,8,2,7,4,8-1,5,1,7,3,5,2,7,3,4,3,4l21,2,5-101-40,2s1-49,0-56,2-32,25-30,27,16,27,16,9,12,13,12,50-26,54-36v-103h21s-2-5-9-11c0,0-3-11,5-31,0,0,1-8-1-9s-1-12-1-12l-5,2-1-4s-12,9-13-1c0,0-16,5-20,1s-25-2-36-2c0,0-7-3-7-6s-4,2-7-3-11-16-23-18-13-9-14-9h-10s-8-2-8-5-7,1-7,1,9-17-13-29c0,0-5-2-7-6S501.5,110.5,492.5,109.5Z" transform="translate(-120.96 -106.89)"/><path id="SAULT_STE._MARIE_ALGOMA" data-name="SAULT STE. MARIE – ALGOMA" class="cls-1" d="M557.5,558.5s4,9,7,10,6,4,12,1,6-6,12-5,10,6,7,10-7,9-2,13,4,5,4,5,11,2,4,16,2,12,2,12,10-4,8,4c0,0-1,4,0,6s-9,3-7,10,14-2,14-2l4,5s-4,5-2,6,13,5,17,2,1,4,10,3,5,3,11,3,9-2,15,1,4,3,10-4,15-31,9-42l-64-5-5-68,49-2-9-170s0,4-12,12-35,22-41,24c0,0-3,1-7-4s-8-10-10-13-16-14-33-10c0,0-16,2-16,29s1,33,0,56l40-2-5,101Z" transform="translate(-120.96 -106.89)"/><path id="NORTHEASTERN_ONTARIO" data-name="NORTHEASTERN ONTARIO" class="cls-1" d="M684.5,264.5h-21v108l9,165-49,2,5,68,64,5s8,21-11,44c0,0-1,0,3,1a13.6,13.6,0,0,0,7,0,14.63,14.63,0,0,0,3,5c2,2,0,3,0,5,0,0-4,1-6,7h-4s2-6-6-6-27,1-27,1l-5-2h-6v7h7v-3l8,5a6.93,6.93,0,0,1,5,0c3,1,14,6,17,8s13,5,15,5,2,3,2,3h8a18.58,18.58,0,0,0,0-8s7-2,5-11h-8a7.1,7.1,0,0,0-4-6l1-3,3,1v-5s5-4,5,5h24s5-8,21-3l15-9s5-6,10-4l4,16s14-17,41-13v-5s-10-3-14-3l-1-3s-22-21-25-40a16.43,16.43,0,0,1-4-13c1-8-8-205-8-205v-2s-4,2-4,4-5,4-1,9c0,0-2,5-1,8s-2,0-2,0,0-2-4-2-1-3-4-5-10-2-10-2-5,1-7,5-8,4-5,1,9-10,8-14l-1-4a32.24,32.24,0,0,1-2-6c-1-4-5-7-7-7s-7-6-8-9-5-1-7-3-11-7-10-13-6-10-6-10-6-6-8-12-6-5-6-5-6-12-1-17l3-2v-4a7.65,7.65,0,0,1-2-5c0-3-3-8,0-13S684.5,264.5,684.5,264.5Z" transform="translate(-120.96 -106.89)"/><path id="ALGONQUIN_PARK_ALMAGUIN_HIGHLANDS_LORING-RESTOULE_MUSKOKA_AND_PARRY_SOUND" data-name="ALGONQUIN PARK, ALMAGUIN HIGHLANDS, LORING-RESTOULE, MUSKOKA AND PARRY SOUND" class="cls-1" d="M717.5,665.5h11s3-7,21-3l15-9s5-6,10-4l4,16s14-17,41-13l8,6,18-2s1,7,4,7v10h-8v14l-3,2,1,4a10.8,10.8,0,0,1-8-4s2,15-2,14-14-11-14-11v-6h-6s-4,6-7,6-5,3-5,3,8,10,6,10-6,2-6,2l-2,13h-5l-3-3s-10,4-13,1-8-2-8-2-5-6-5-11-5-4-5-4-2-2-1-4-4-2-4-2-3-1-2-7-6-6-6-6-5-7-5-12c0,0-2-2-13-2S720.5,667.5,717.5,665.5Z" transform="translate(-120.96 -106.89)"/><path id="HALIBURTON_HIGHLANDS_TO_THE_OTTAWA_VALLEY" data-name="HALIBURTON HIGHLANDS TO THE OTTAWA VALLEY" class="cls-1" d="M803.5,705.5a21.76,21.76,0,0,0-6-10,6.93,6.93,0,0,1,4-3c3-1,3,1,8-6h6v6s11,11,14,11,3-9,2-15a8.61,8.61,0,0,0,8,5l-1-4,3-2v-14h8v-10s-4-1-4-7l-18,2-8-6v-5s4,1,10-2,2,5,9,4,9,0,9,0l3,3,6,4s1,9,5,9a7.5,7.5,0,0,1,6,3s2,1,2-2,2-8,2-8l2,8s5,4,5,6,0,8,4,8,2-2,8,1c0,0,4,1,4,0,0,0,1,7,7,10s12,14,12,14l-10,9s-13,4-14,4-2,8-1,12a19.42,19.42,0,0,1-11-4c-5-4-9,0-9,0s-1,8,2,10c0,0-4,3-7,1l-13,6s-7-24-12-28l-18,1-13,9s-5,2-3-12A12.69,12.69,0,0,0,803.5,705.5Z" transform="translate(-120.96 -106.89)"/><path id="OTTAWA_AND_COUNTRYSIDE" data-name="OTTAWA AND COUNTRYSIDE" class="cls-1" d="M894.5,681.5l7-3s6,11,9,7,4-5,7-6a29.54,29.54,0,0,0,6-3l4-3h4s4-6,9-6,15-2,17,0,4,7,3,7-8,2-8,2-17,8-39,29c0,0-5-9-8-11s-3-3-6-4C899.5,690.5,894.5,685.5,894.5,681.5Z" transform="translate(-120.96 -106.89)"/><path id="SOUTH_EASTERN_ONTARIO" data-name="SOUTH EASTERN ONTARIO" class="cls-1" d="M848.5,756.5s-5-10,2-13,13-6,13-6,2,2,7-1a13.83,13.83,0,0,1-2-10,8.22,8.22,0,0,1,9,0c5,3,8,4,11,4,0,0-1-12,1-12s14-4,14-4l10-9s38-34,47-31c0,0-1,12,3,13l-3,3s-1,4-9,6-10,0-22,13-27,36-31,37-18,0-19,5a22.58,22.58,0,0,0,0,9s-5,6-11,2-5-4-8-4a4.33,4.33,0,0,1-4-2Z" transform="translate(-120.96 -106.89)"/><path id="KAWARTHAS_NORTHUMBERLAND" data-name="KAWARTHAS NORTHUMBERLAND" class="cls-1" d="M792.5,732.5v-12h3l2-13,6-2a27.67,27.67,0,0,1,1,8c0,5-1,12,2,12s14-9,14-9l18-1s9,16,12,28c0,0-7,1-2,13,0,0-18,7-26,7l-1,1v-8h-8s-6-2-14-12C799.5,744.5,798.5,734.5,792.5,732.5Z" transform="translate(-120.96 -106.89)"/><path id="YORK_DURHAM_AND_HEADWATERS_" data-name="YORK, DURHAM AND HEADWATERS
" class="cls-1" d="M792.5,732.5s-11,4-9,14c0,0,6,3,2,9s-8,12-11,11-1,0-1,0l-7-16s-13-1-14,4v9s-2,3-3,3l3,9s7-2,11,6l4-5a58.46,58.46,0,0,1,10-1c5,0,13,5,13,5s8-9,12-9l3-3h4c2,0,11-2,12-4v-8h-8s-11-6-14-12C799.5,744.5,797.5,733.5,792.5,732.5Z" transform="translate(-120.96 -106.89)"/><path id="BRUCE_PENINSULA_SOUTHERN_GEORGIAN_BAY_AND_LAKE_SIMCOE" data-name="BRUCE PENINSULA, SOUTHERN GEORGIAN BAY AND LAKE SIMCOE" class="cls-1" d="M769.5,716.5s1,5,3,6-3,3-3,3l-3-4s-6-1-6,3,3,2,3,2,3,12,1,12a35.36,35.36,0,0,1-6-1s-1,4-2,2a7.47,7.47,0,0,0-3-3h-6a14.54,14.54,0,0,1-5-8s-4-3-6,0l-4,6s-2,1-1-3,0-7-3-8v-6h-3s-8-2-9-14h-9s-2,5,2,8,13,15,9,23-14,19-14,31c0,0,11,7,17,7l4-5,24-1,3-3v-9s1-5,14-4l7,16s5,1,10-8c0,0,7-8,0-12,0,0-2-10,9-14v-12h-2l-3-3s-9,3-12,2C775.5,719.5,773.5,715.5,769.5,716.5Z" transform="translate(-120.96 -106.89)"/><path id="HURON_PERTH_WATERLOO_AND_WELLINGTON" data-name="HURON, PERTH, WATERLOO AND WELLINGTON" class="cls-1" d="M704.5,765.5l1,27s-3,11-6,11,12,1,12,1,5-7,7-3,3,4,3,4l14-1v-4l30-1s2-15-2-18c0,0-4-8-11-6l-3-9-24,1-4,5A38.64,38.64,0,0,1,704.5,765.5Z" transform="translate(-120.96 -106.89)"/><path id="GREATER_TORONTO_AREA" data-name="GREATER TORONTO AREA" class="cls-1" d="M763.5,781.5s5-1,10,5l6,3a6.21,6.21,0,0,1,5-6c5-1,6-3,6-3s-9-8-23-4Z" transform="translate(-120.96 -106.89)"/><path id="HAMILTON_HALTON_BRANT" data-name="HAMILTON, HALTON, BRANT" class="cls-1" d="M763.5,781.5a30.43,30.43,0,0,1,2,18l-16,1-1,17s9,5,14,3,7-4,7-4l5-2,5-6,6-9a53.84,53.84,0,0,0-8-1,4.33,4.33,0,0,1-4-2s4-1,6-7l-6-3S768.5,781.5,763.5,781.5Z" transform="translate(-120.96 -106.89)"/><path id="NIAGARA_CANADA" data-name="NIAGARA CANADA" class="cls-1" d="M785.5,799.5l-6,9s1,10,7,11,20,0,20,0,5,3,4-2a16.85,16.85,0,0,0-4-8s-3-3-1-6,3-7-1-6a24.89,24.89,0,0,0-7,3S790.5,802.5,785.5,799.5Z" transform="translate(-120.96 -106.89)"/><path id="SOUTHWEST_ONTARIO" data-name="SOUTHWEST ONTARIO" class="cls-1" d="M699.5,803.5l-5,3s-4,8-9,8-8,8-7,12-2,8-2,8l5,7,1,6-4,3-6-2-3,4s-11-6-14,2-1,18,8,15c0,0,3-3,6-3h6l2,5s-3,6,1,6,1-6,1-6l-1-1a3.53,3.53,0,0,1,1-4,28.77,28.77,0,0,0,4-6l9-6s8,1,8,0,2-2,1-4,4-6,4-6l7-7s15-6,30-3a9.36,9.36,0,0,0,7,1c4-1,6,3,6,3l5-2h1s1,6,3,6a10.34,10.34,0,0,0,4-1l-2-3s2,1,3,0,1-4,1-4l-2-2-5,1-1,2h-7s-3,0-1-3-1-7,4-7,11,0,11-1,5-4,7-4,7,2,7,2-1-2,0-2a3.49,3.49,0,0,0,2-1s-6-4-6-11l-5,6-6,3s-10,7-20,0l1-17h-14v4l-14,1s-3-4-4-5c0,0-3-1-6,4Z" transform="translate(-120.96 -106.89)"/></g><g id="Names"><text class="cls-2" transform="translate(298 500.42)">CENTRAL</text><text class="cls-2" transform="translate(0 282.42)">NO<tspan class="cls-3" x="34.59" y="0">R</tspan><tspan x="47.82" y="0">THERN</tspan></text><text class="cls-2" transform="translate(670 382.42)">EASTERN</text><text class="cls-2" transform="translate(728.35 691.91)">SOUTHERN</text><text class="cls-2" transform="translate(374.26 626.6)">SOUTHWESTERN</text></g></svg>